<svg xmlns="http://www.w3.org/2000/svg" viewBox="0 0 20 20">
  <path
      d="M10.43,2.43a8,8,0,1,0,8,8A8,8,0,0,0,10.43,2.43Zm.92,13H9.56V13.6h1.78Zm2.09-5.61A7.32,7.32,0,0,1,12,11.2a2.74,2.74,0,0,0-.7.75,2.54,2.54,0,0,0-.12,1H9.56q0-.35,0-.42a2.82,2.82,0,0,1,.26-1.29,3.94,3.94,0,0,1,1-1.14,7.89,7.89,0,0,0,.93-.83A1.11,1.11,0,0,0,12,8.6a1.15,1.15,0,0,0-.42-.89,1.62,1.62,0,0,0-1.12-.37,1.7,1.7,0,0,0-1.14.39A2.06,2.06,0,0,0,8.73,8.9L7.09,8.7a2.72,2.72,0,0,1,1-1.93A3.43,3.43,0,0,1,10.41,6a3.56,3.56,0,0,1,2.44.8,2.43,2.43,0,0,1,.91,1.87A2.06,2.06,0,0,1,13.43,9.77Z"/>
</svg>
